<?xml version="1.0" encoding="utf-8"?>
<!-- Generator: Adobe Illustrator 26.0.3, SVG Export Plug-In . SVG Version: 6.00 Build 0)  -->
<svg version="1.1" id="Livello_1" xmlns="http://www.w3.org/2000/svg" xmlns:xlink="http://www.w3.org/1999/xlink" x="0px" y="0px"
	 viewBox="0 0 255 268.2" style="enable-background:new 0 0 255 268.2;" xml:space="preserve">
<style type="text/css">
	.st0{fill:#FFAA56;}
</style>
<g id="Layer_1">
	<g id="svg_6">
		<path d="M109.6,81.3c0-22.6,0.1-46.1,0.8-60.6h-0.1c-5.4,24.2-15.7,62.6-28.5,110.8H58.4c-10-42.2-21.5-85.9-27.3-110.8h-0.1
			c0.8,15.2,1.8,40.7,1.8,63v47.8H8.9V0.5h38.3c11,40.6,21,76.2,24.3,94.1h0.2c4.6-20.7,14.5-55.1,25.1-94.1h38.5v131h-25.5V81.3
			L109.6,81.3z"/>
		<path class="st0" d="M100.7,81.3c0-22.6,0.1-46.1,0.8-60.6h-0.1c-5.4,24.2-15.7,62.6-28.5,110.8H49.5C39.5,89.2,28,45.5,22.2,20.7
			h-0.1c0.8,15.2,1.8,40.7,1.8,63v47.8H0V0.4h38.3c11,40.6,21,76.1,24.3,94.1h0.1c4.6-20.7,14.5-55.1,25.1-94.1h38.5v131h-25.5
			L100.7,81.3L100.7,81.3z"/>
		<path d="M38.4,226.2c3.5,11.3,11.7,18.7,31.7,18.7c18.7,0,24.1-6.2,24.1-14.7c0-9-5.5-14.1-30.8-18.8
			c-41.7-7.8-49.2-22.5-49.2-40.1c0-26.2,23.1-39.5,51.5-39.5c41.2,0,52.4,23.1,53.8,38.3H90.1c-1.7-6.5-5.7-15.2-25.5-15.2
			c-13.9,0-20.9,4.8-20.9,13.3c0,7.6,5,11.4,27.5,15.8c45.6,8.9,52.8,24,52.8,43c0,22.7-16.3,41-56.6,41
			c-37.6,0-54.5-18.3-58.1-41.9L38.4,226.2L38.4,226.2z"/>
		<path class="st0" d="M31.1,226.1c3.5,11.3,11.7,18.7,31.7,18.7c18.7,0,24.1-6.2,24.1-14.7c0-9-5.5-14.1-30.8-18.8
			c-41.7-7.8-49.2-22.5-49.2-40.1c0-26.2,23.1-39.5,51.5-39.5c41.2,0,52.4,23.1,53.8,38.3H82.8c-1.7-6.5-5.7-15.2-25.5-15.2
			c-13.9,0-20.9,4.8-20.9,13.3c0,7.6,5,11.4,27.5,15.8c45.6,8.9,52.8,24,52.8,43c0,22.7-16.3,41.1-56.6,41.1
			c-37.6,0-54.5-18.3-58.1-41.9L31.1,226.1z"/>
		<g id="svg_3">
			<path d="M170.4,232.5l-9.1,29.7h-25.9l41.8-131h32.3l43.9,131h-27.3l-9.6-29.7H170.4z M209.5,207c-9.7-30-14.4-45.3-16.8-55.3
				h-0.2c-2.3,9.8-7.8,29.7-15.6,55.3H209.5z"/>
			<path class="st0" d="M163.4,232.4l-9.1,29.7h-25.9l41.8-131h32.3l43.9,131h-27.3l-9.6-29.7H163.4z M202.5,206.9
				c-9.7-30-14.4-45.3-16.9-55.3h-0.1c-2.3,9.8-7.8,29.7-15.6,55.3H202.5L202.5,206.9z"/>
		</g>
		<path d="M178.1,131L133.6,0h29.3l19.2,62.4c7.2,23.6,10.3,36.3,12.2,44.6h0.3c1.7-7.6,3.2-13.1,13.5-47l18.6-60H255l-45.3,131
			L178.1,131z"/>
		<path class="st0" d="M170.6,131.4l-44.5-131h29.3l19.2,62.4c7.2,23.6,10.3,36.3,12.2,44.6h0.3c1.7-7.6,3.2-13.1,13.5-47l18.6-60
			h28.3l-45.3,131L170.6,131.4z"/>
	</g>
</g>
</svg>
