{
    "asset" : {
        "generator" : "Khronos glTF Blender I/O v1.7.33",
        "version" : "2.0"
    },
    "scene" : 0,
    "scenes" : [
        {
            "name" : "Scene",
            "nodes" : [
                1
            ]
        }
    ],
    "nodes" : [
        {
            "mesh" : 0,
            "name" : "Curve"
        },
        {
            "children" : [
                0
            ],
            "mesh" : 1,
            "name" : "Curve.001"
        }
    ],
    "materials" : [
        {
            "doubleSided" : true,
            "name" : "SVGMat",
            "pbrMetallicRoughness" : {
                "baseColorFactor" : [
                    1,
                    0,
                    0.00837232917547226,
                    1
                ],
                "metallicFactor" : 0,
                "roughnessFactor" : 0.4000000059604645
            }
        }
    ],
    "meshes" : [
        {
            "name" : "Curve",
            "primitives" : [
                {
                    "attributes" : {
                        "POSITION" : 0,
                        "NORMAL" : 1,
                        "TEXCOORD_0" : 2
                    },
                    "indices" : 3,
                    "material" : 0
                }
            ]
        },
        {
            "name" : "Curve.001",
            "primitives" : [
                {
                    "attributes" : {
                        "POSITION" : 4,
                        "NORMAL" : 5,
                        "TEXCOORD_0" : 6
                    },
                    "indices" : 7,
                    "material" : 0
                }
            ]
        }
    ],
    "accessors" : [
        {
            "bufferView" : 0,
            "componentType" : 5126,
            "count" : 1840,
            "max" : [
                0.008621255867183208,
                0.027781525626778603,
                0.0010000012116506696
            ],
            "min" : [
                -0.008535283617675304,
                0.0001288063358515501,
                -0.0010000000474974513
            ],
            "type" : "VEC3"
        },
        {
            "bufferView" : 1,
            "componentType" : 5126,
            "count" : 1840,
            "type" : "VEC3"
        },
        {
            "bufferView" : 2,
            "componentType" : 5126,
            "count" : 1840,
            "type" : "VEC2"
        },
        {
            "bufferView" : 3,
            "componentType" : 5123,
            "count" : 2892,
            "type" : "SCALAR"
        },
        {
            "bufferView" : 4,
            "componentType" : 5126,
            "count" : 532,
            "max" : [
                0.0031002447940409184,
                0.02188183180987835,
                0.0010000010952353477
            ],
            "min" : [
                -0.0028162652160972357,
                0.015963589772582054,
                -0.0009999992325901985
            ],
            "type" : "VEC3"
        },
        {
            "bufferView" : 5,
            "componentType" : 5126,
            "count" : 532,
            "type" : "VEC3"
        },
        {
            "bufferView" : 6,
            "componentType" : 5126,
            "count" : 532,
            "type" : "VEC2"
        },
        {
            "bufferView" : 7,
            "componentType" : 5123,
            "count" : 852,
            "type" : "SCALAR"
        }
    ],
    "bufferViews" : [
        {
            "buffer" : 0,
            "byteLength" : 22080,
            "byteOffset" : 0
        },
        {
            "buffer" : 0,
            "byteLength" : 22080,
            "byteOffset" : 22080
        },
        {
            "buffer" : 0,
            "byteLength" : 14720,
            "byteOffset" : 44160
        },
        {
            "buffer" : 0,
            "byteLength" : 5784,
            "byteOffset" : 58880
        },
        {
            "buffer" : 0,
            "byteLength" : 6384,
            "byteOffset" : 64664
        },
        {
            "buffer" : 0,
            "byteLength" : 6384,
            "byteOffset" : 71048
        },
        {
            "buffer" : 0,
            "byteLength" : 4256,
            "byteOffset" : 77432
        },
        {
            "buffer" : 0,
            "byteLength" : 1704,
            "byteOffset" : 81688
        }
    ],
    "buffers" : [
        {
            "byteLength" : 83392,
            "uri" : "data:application/octet-stream;base64,"
        }
    ]
}
